<svg width="25" height="25" viewBox="0 0 25 25" fill="none" xmlns="http://www.w3.org/2000/svg">
<g id="Contact Icon">
<path id="Vector" d="M11.4594 17.7098L13.5427 19.7932C13.7479 19.9984 13.9915 20.1611 14.2596 20.2722C14.5277 20.3832 14.815 20.4404 15.1052 20.4404C15.3954 20.4404 15.6827 20.3832 15.9508 20.2722C16.2189 20.1611 16.4625 19.9984 16.6677 19.7932C16.8729 19.588 17.0356 19.3444 17.1467 19.0763C17.2577 18.8082 17.3149 18.5209 17.3149 18.2307C17.3149 17.9405 17.2577 17.6532 17.1467 17.3851C17.0356 17.117 16.8729 16.8734 16.6677 16.6682" stroke="#FE746A" stroke-width="2" stroke-linecap="round" stroke-linejoin="round"/>
<path id="Vector_2" d="M14.5836 14.5849L17.1877 17.189C17.6021 17.6034 18.1642 17.8362 18.7502 17.8362C19.3363 17.8362 19.8983 17.6034 20.3127 17.189C20.7271 16.7746 20.9599 16.2126 20.9599 15.6265C20.9599 15.0405 20.7271 14.4784 20.3127 14.064L16.2711 10.0224C15.6851 9.43715 14.8909 9.10845 14.0627 9.10845C13.2346 9.10845 12.4403 9.43715 11.8544 10.0224L10.9377 10.939C10.5233 11.3534 9.96129 11.5862 9.37524 11.5862C8.78918 11.5862 8.22714 11.3534 7.81274 10.939C7.39834 10.5246 7.16553 9.96258 7.16553 9.37653C7.16553 8.79048 7.39834 8.22843 7.81274 7.81403L10.7398 4.88695C11.6901 3.93918 12.9293 3.33544 14.2613 3.17129C15.5933 3.00715 16.9421 3.29198 18.094 3.9807L18.5836 4.27236C19.0271 4.54006 19.5545 4.6329 20.0627 4.53278L21.8752 4.1682" stroke="#FE746A" stroke-width="2" stroke-linecap="round" stroke-linejoin="round"/>
<path id="Vector_3" d="M21.876 3.12601L22.9177 14.5843H20.8344" stroke="#FE746A" stroke-width="2" stroke-linecap="round" stroke-linejoin="round"/>
<path id="Vector_4" d="M3.12602 3.12601L2.08435 14.5843L8.85518 21.3552C9.26958 21.7696 9.83163 22.0024 10.4177 22.0024C11.0037 22.0024 11.5658 21.7696 11.9802 21.3552C12.3946 20.9408 12.6274 20.3787 12.6274 19.7927C12.6274 19.2066 12.3946 18.6446 11.9802 18.2302" stroke="#FE746A" stroke-width="2" stroke-linecap="round" stroke-linejoin="round"/>
<path id="Vector_5" d="M3.125 4.16818H11.4583" stroke="#FE746A" stroke-width="2" stroke-linecap="round" stroke-linejoin="round"/>
</g>
</svg>
